<svg width="45" height="21" viewBox="0 0 45 21" fill="none" xmlns="http://www.w3.org/2000/svg">
<path d="M2.57408 3.44702C1.15319 3.44702 0 4.60021 0 6.0211V14.9789C0 16.3998 1.15319 17.553 2.57408 17.553C3.99497 17.553 5.14815 16.3998 5.14815 14.9789V6.0211C5.14815 4.60021 3.99497 3.44702 2.57408 3.44702Z" fill="white"/>
<path d="M35.527 0.589844C34.1062 0.589844 32.953 1.74303 32.953 3.16392V8.44078H12.0515V3.16392C12.0515 1.74303 10.8983 0.589844 9.4774 0.589844C8.05651 0.589844 6.90332 1.74303 6.90332 3.16392V17.8362C6.90332 19.257 8.05651 20.4102 9.4774 20.4102C10.8983 20.4102 12.0515 19.257 12.0515 17.8362V12.5593H32.953V17.8362C32.953 19.257 34.1062 20.4102 35.527 20.4102C36.9479 20.4102 38.1011 19.257 38.1011 17.8362V3.16392C38.1011 1.74303 36.9479 0.589844 35.527 0.589844Z" fill="white"/>
<path d="M42.4256 3.44702C41.0047 3.44702 39.8516 4.60021 39.8516 6.0211V14.9789C39.8516 16.3998 41.0047 17.553 42.4256 17.553C43.8465 17.553 44.9997 16.3998 44.9997 14.9789V6.0211C44.9997 4.60021 43.8465 3.44702 42.4256 3.44702Z" fill="white"/>
</svg>
