<svg width="37" height="37" viewBox="0 0 37 37" fill="none" xmlns="http://www.w3.org/2000/svg">
<path d="M6.21884 5.6543C5.64765 5.6543 5.18457 6.11737 5.18457 6.68863V36.9999H7.2531V7.72283H9.35444C9.44261 5.63912 9.43444 5.77765 9.44817 5.6543H6.21884Z" fill="white"/>
<path d="M15.5224 28.0481L14.6207 29.0048C14.0221 29.6397 14.0518 30.6395 14.6866 31.2379C15.3212 31.8363 16.3212 31.8068 16.9196 31.1719L18.1979 29.8159L15.5224 28.0481Z" fill="white"/>
<path d="M22.9998 5.6543H22.9129C22.7634 5.87875 22.544 6.02885 22.2986 6.09439C22.2781 6.68032 22.1247 7.23287 21.8672 7.72283H23.06C22.9809 5.84941 22.9736 5.89089 22.9998 5.6543Z" fill="white"/>
<path d="M30.7802 5.65442H27.5508C27.5646 5.77778 27.5564 5.64033 27.6446 7.72295H29.746V37H31.8145V6.68861C31.8145 6.11742 31.3514 5.65442 30.7802 5.65442Z" fill="white"/>
<path d="M15.1293 7.72293C14.8716 7.23261 14.7182 6.67977 14.6979 6.09341C14.4532 6.027 14.2356 5.87683 14.0875 5.65454H14.0007C14.0264 5.8863 14.0206 5.8274 13.9404 7.723H15.1293V7.72293Z" fill="white"/>
<path d="M26.4898 5.86038C26.4615 5.18946 25.8923 4.67023 25.2248 4.69806C24.5545 4.72638 24.034 5.29287 24.0624 5.96321L24.1882 8.93477L20.2725 9.21943H16.728L12.8124 8.93477L12.9381 5.96321C12.9672 5.27669 12.4201 4.6969 11.722 4.6969C11.0761 4.69697 10.5381 5.20811 10.5105 5.86052L10.3341 10.0302C10.306 10.6944 10.8169 11.2578 11.4807 11.2946L14.9975 11.4893C14.9975 12.2726 14.9975 18.4091 14.9975 19.3962C13.9097 20.86 13.6996 21.1426 12.6399 22.5684C12.099 23.2963 12.2814 24.3294 13.0369 24.8287L19.8617 29.338C20.5903 29.8193 21.57 29.6181 22.0506 28.8909C22.5315 28.163 22.3314 27.1829 21.6035 26.702L16.1717 23.113C16.9974 22.0018 16.4904 22.6842 18.0997 20.5187H19.1408L20.1418 23.1475L19.5545 23.7706L22.2299 25.5384L23.1199 24.5942C23.5352 24.1536 23.6621 23.5144 23.4466 22.9485L21.9703 19.0714C21.9703 18.137 21.9703 12.3178 21.9703 11.491L25.5197 11.2945C26.1834 11.2577 26.6944 10.6942 26.6662 10.03L26.4898 5.86038Z" fill="white"/>
<path d="M20.5477 5.50502C19.9329 5.78895 19.2341 5.94035 18.5084 5.94035C17.7773 5.94035 17.0742 5.78693 16.4565 5.49902C16.3045 5.787 16.106 5.99527 15.7725 6.09059C15.8415 7.55108 17.05 8.68796 18.4975 8.68796C19.9485 8.68796 21.1544 7.54927 21.2225 6.08842C20.8949 5.99253 20.6992 5.78845 20.5477 5.50502Z" fill="white"/>
<path d="M22.2605 5.01784C22.1323 4.32625 21.817 2.62006 21.817 2.55654C21.817 1.14454 20.3359 0 18.5089 0C16.7655 0 15.3382 1.0425 15.2112 2.36475H15.2009L14.739 5.02065C14.7133 5.16909 14.8276 5.3048 14.978 5.3048H15.4778C15.5677 5.3048 15.6503 5.25501 15.6922 5.17552L16.1352 4.3363C16.7364 4.81513 17.5774 5.11308 18.5089 5.11308C19.4327 5.11308 20.2677 4.82004 20.8679 4.34815L21.3107 5.1766C21.3529 5.25552 21.4351 5.3048 21.5246 5.3048H22.0218C22.1734 5.30487 22.2882 5.16735 22.2605 5.01784Z" fill="white"/>
</svg>
