<svg width="33" height="29" viewBox="0 0 33 29" fill="none" xmlns="http://www.w3.org/2000/svg">
<path d="M29.3416 0.0648193H22.9223C22.6767 0.0648193 22.4411 0.162466 22.2674 0.336103L16.5074 6.09603L10.7475 0.336103C10.5739 0.162466 10.3383 0.0648193 10.0926 0.0648193H3.65843C1.64117 0.0648193 0 1.70599 0 3.72325V9.7836C0 10.2952 0.414692 10.7098 0.926193 10.7098H5.30038V15.6731V19.378C5.30038 19.8895 5.71507 20.3042 6.22657 20.3042H14.2638L12.1311 22.4369C11.7694 22.7986 11.7694 23.3851 12.1311 23.7469C12.4928 24.1086 13.0792 24.1086 13.441 23.7469L16.5 20.6879L19.559 23.7469C19.74 23.9278 19.977 24.0182 20.214 24.0182C20.451 24.0182 20.688 23.9278 20.8689 23.7469C21.2306 23.3852 21.2306 22.7988 20.8689 22.437L18.7361 20.3042H25.8472V27.0827H7.15283V24.6884C7.15283 24.1768 6.73814 23.7622 6.22664 23.7622C5.71513 23.7622 5.30044 24.1769 5.30044 24.6884V28.009C5.30044 28.5205 5.71513 28.9352 6.22664 28.9352H26.7734C27.2849 28.9352 27.6996 28.5205 27.6996 28.009V19.378V15.6732C27.6996 15.1616 27.2849 14.747 26.7734 14.747H10.4764L23.306 1.91727H29.3416C30.3374 1.91727 31.1475 2.72745 31.1475 3.72331V8.85747H26.7734C26.2619 8.85747 25.8472 9.27216 25.8472 9.78366C25.8472 10.2952 26.2619 10.7099 26.7734 10.7099H32.0738C32.5852 10.7099 33 10.2952 33 9.78366V3.72325C33.0001 1.70599 31.3589 0.0648193 29.3416 0.0648193ZM1.85239 8.85734V3.72325C1.85239 2.72751 2.66256 1.91721 3.65843 1.91721H9.70904L15.1977 7.40585L7.85666 14.7469H7.15289V9.78353C7.15289 9.27197 6.7382 8.85734 6.2267 8.85734H1.85239ZM25.8472 18.4518H7.15283V16.5995H25.8472V18.4518Z" fill="white"/>
</svg>
