<svg width="28" height="34" viewBox="0 0 28 34" fill="none" xmlns="http://www.w3.org/2000/svg">
<path d="M27.7382 10.5214C27.5285 9.65705 26.6575 9.12671 25.7936 9.33622L11.2712 12.8607L8.64224 8.09666L12.4056 8.82005C12.9039 8.91595 13.4076 8.68983 13.6682 8.25693C13.9294 7.82307 13.8921 7.27236 13.5749 6.87755L9.68646 2.03861C9.32052 1.58327 8.69192 1.46331 8.19214 1.72125C8.4077 2.47586 8.38548 3.26429 8.15397 3.98753L9.63242 5.82735L7.3575 5.39002L4.5134 11.2293L6.37514 5.59333C6.58435 4.96 6.24056 4.27699 5.60723 4.06778C4.97391 3.85834 4.2909 4.20243 4.08168 4.83576L2.67779 9.08567L3.01716 6.44C3.01539 6.43934 3.01361 6.43853 3.01184 6.43779L1.16221 7.45854C0.687678 7.78417 0.103592 8.32824 0.23448 9.1225L1.10699 14.2875C1.20495 14.8677 1.70732 15.2941 2.29842 15.2941C2.81562 15.2941 3.28019 14.9627 3.44452 14.4651L3.5709 14.0825L5.27444 17.3788V32.3898C5.27444 33.2791 5.99539 34 6.88466 34C7.77393 34 8.49496 33.2791 8.49496 32.3898V16.8543C8.49496 16.8543 8.6945 16.8002 26.5531 12.466C27.4174 12.2562 27.9479 11.3856 27.7382 10.5214Z" fill="white"/>
<path d="M3.246 5.3241L3.39379 4.60345C3.60987 3.5497 4.63926 2.8706 5.693 3.08668C6.24387 3.19963 6.6919 3.53508 6.96364 3.97979C7.32884 3.19786 7.32862 2.25832 6.87978 1.44486C6.37033 0.521706 5.41521 0 4.43041 0C3.97367 0 3.5108 0.112063 3.08263 0.34837C1.7313 1.09413 1.2403 2.79412 1.98606 4.14545C2.28246 4.68251 2.73005 5.08241 3.246 5.3241Z" fill="white"/>
</svg>
