<svg width="36" height="30" viewBox="0 0 36 30" fill="none" xmlns="http://www.w3.org/2000/svg">
<path d="M35.832 27.0345L32.9433 20.714C32.9433 20.714 34.1578 15.4109 34.1589 15.3324C34.166 14.8791 33.9937 14.4419 33.6781 14.1168L27.9701 8.22144C28.1372 8.48675 28.2695 8.77901 28.3395 9.10353C28.5024 9.85983 28.3372 10.6084 27.9413 11.206L28.7923 14.7492C29.0341 15.7576 28.4683 16.8013 27.4845 17.1427C26.6592 17.4258 27.1946 17.2421 24.0628 18.3169C23.4974 18.6235 23.1298 19.2019 23.1011 19.8469L22.749 27.7171C22.7034 28.7321 23.4898 29.5915 24.5047 29.637C24.5322 29.6382 24.5604 29.6387 24.588 29.6387C25.5663 29.6387 26.3802 28.868 26.4245 27.8811L26.7288 21.0744L29.4048 19.6923L29.2174 20.4702C29.1209 20.8702 29.1617 21.2912 29.3329 21.6654L32.4857 28.5638C32.9067 29.4848 33.9948 29.8962 34.9234 29.4722C35.8475 29.0502 36.2542 27.9584 35.832 27.0345Z" fill="white"/>
<path d="M24.5193 12.7498L24.511 13.6252L18.8168 15.5792C18.0162 15.8534 17.5898 16.7254 17.8647 17.5266C18.0828 18.1624 18.6773 18.5625 19.3145 18.5625C19.4793 18.5625 19.6475 18.5355 19.812 18.4786L26.5314 16.1733C27.1458 15.9625 27.5608 15.3876 27.5668 14.7379L27.5962 11.6288C27.2327 11.9946 26.7662 12.2653 26.2248 12.3822L24.5193 12.7498Z" fill="white"/>
<path d="M15.6725 5.64906C16.9257 6.36469 18.4868 6.00592 19.33 4.87962C19.4283 5.40781 19.6748 5.91438 20.0768 6.32992C21.1642 7.45149 22.9564 7.48028 24.0787 6.39281C25.202 5.30535 25.2301 3.51496 24.1433 2.39147C23.0565 1.26879 21.2648 1.23934 20.142 2.3268C20.0295 2.43635 19.9354 2.55735 19.8443 2.67945C19.6977 1.88838 19.2288 1.16271 18.4761 0.7327C17.118 -0.0415396 15.3897 0.431509 14.6161 1.78909C13.8425 3.14725 14.3143 4.87482 15.6725 5.64906Z" fill="white"/>
<path d="M19.1944 20.0373C19.1915 20.0357 14.271 16.9757 14.2679 16.9738L16.0051 13.9271L16.7213 14.9829C16.8261 15.1372 16.9674 15.2559 17.1166 15.3613C17.4363 14.939 17.8806 14.6037 18.4196 14.4187L21.1903 13.4678L21.0724 13.4936C20.7878 13.5546 20.5047 13.5187 20.258 13.408L17.1087 11.9924L14.6579 10.8904L20.5274 12.2115C20.7509 12.2611 20.976 12.2599 21.1874 12.2138L25.9672 11.1833C26.7948 11.0054 27.3205 10.1899 27.142 9.36173C26.9642 8.53419 26.1522 8.00718 25.3205 8.18679L20.8711 9.1461L15.3309 7.89881L17.1124 7.93543C17.0034 7.84374 16.8885 7.75752 16.7603 7.68451L15.8561 7.16835C15.2949 6.84855 14.6291 6.7641 14.0057 6.93478C13.3824 7.10545 12.8523 7.51679 12.5319 8.0779L5.20132 21.5614L0.502293 26.5364C-0.195246 27.2747 -0.162396 28.4388 0.576631 29.1364C1.31433 29.8346 2.4796 29.8011 3.17662 29.0621L8.06656 23.8853C8.19353 23.7518 8.29895 23.5991 8.38037 23.4339L10.5594 18.9985C10.5642 19.0014 10.5679 19.0056 10.5727 19.0086L16.4003 22.6321L16.4841 27.8292C16.5008 28.8347 17.3213 29.6388 18.3231 29.6388C18.3333 29.6388 18.3435 29.6388 18.3537 29.6388C19.3691 29.6221 20.1795 28.7854 20.1632 27.7693L20.0625 21.5698C20.0525 20.9446 19.7256 20.368 19.1944 20.0373Z" fill="white"/>
</svg>
