<svg width="28" height="33" viewBox="0 0 28 33" fill="none" xmlns="http://www.w3.org/2000/svg">
<path d="M20.2228 2.79881e-07H8.55709C7.18834 -0.000343514 5.83948 0.316043 4.62379 0.922589C3.40811 1.52914 2.36108 2.40813 1.57065 3.48577C0.780218 4.5634 0.269455 5.8082 0.0812549 7.11564C-0.106946 8.42308 0.0329107 9.75499 0.489079 10.9995C0.531791 11.0899 0.583906 11.1758 0.644622 11.256C0.227693 11.9357 0.00596641 12.7103 0.00222966 13.5V18.5145C-0.000688728 19.4999 0.199068 20.476 0.589939 21.3864C0.980811 22.2969 1.55503 23.1235 2.27938 23.8185L4.66852 26.121V31.5C4.66852 31.8978 4.83239 32.2794 5.12409 32.5607C5.41579 32.842 5.81142 33 6.22395 33H21.7782C22.1908 33 22.5864 32.842 22.8781 32.5607C23.1698 32.2794 23.3337 31.8978 23.3337 31.5V26.121L25.7228 23.8185C26.4472 23.1235 27.0214 22.2969 27.4123 21.3864C27.8031 20.476 28.0029 19.4999 28 18.5145V7.5C27.9975 5.51161 27.1773 3.60534 25.7194 2.19933C24.2614 0.793323 22.2847 0.00238207 20.2228 2.79881e-07ZM20.2228 30H7.77938V27H20.2228V30ZM24.8891 18.5145C24.8908 19.1058 24.771 19.6915 24.5366 20.2378C24.3022 20.7842 23.9579 21.2803 23.5234 21.6975L21.1343 24H6.8679L4.47876 21.6975C4.04434 21.2803 3.69998 20.7842 3.46557 20.2378C3.23117 19.6915 3.11136 19.1058 3.11309 18.5145V13.5C3.11309 13.1022 3.27696 12.7206 3.56866 12.4393C3.86036 12.158 4.25599 12 4.66852 12C5.08105 12 5.47667 12.158 5.76837 12.4393C6.06007 12.7206 6.22395 13.1022 6.22395 13.5V18C6.22395 18.3978 6.38782 18.7794 6.67952 19.0607C6.97122 19.342 7.36685 19.5 7.77938 19.5C8.19191 19.5 8.58753 19.342 8.87923 19.0607C9.17093 18.7794 9.33481 18.3978 9.33481 18V16.5H20.2228C20.6353 16.5 21.031 16.342 21.3227 16.0607C21.6144 15.7794 21.7782 15.3978 21.7782 15C21.7782 14.6022 21.6144 14.2206 21.3227 13.9393C21.031 13.658 20.6353 13.5 20.2228 13.5H9.33481C9.33481 12.3065 8.84318 11.1619 7.96809 10.318C7.09299 9.47411 5.9061 9 4.66852 9C4.17486 9.0063 3.68543 9.08885 3.21886 9.2445C3.06055 8.48463 3.0798 7.7003 3.2752 6.9485C3.4706 6.1967 3.83724 5.49634 4.34848 4.89831C4.85972 4.30028 5.5027 3.81961 6.2307 3.49125C6.9587 3.16288 7.75342 2.99507 8.55709 3H20.2228C21.4604 3 22.6473 3.47411 23.5224 4.31802C24.3975 5.16193 24.8891 6.30653 24.8891 7.5V18.5145Z" fill="white"/>
</svg>
