<svg width="776" height="776" viewBox="0 0 776 776" fill="none" xmlns="http://www.w3.org/2000/svg">
<g clip-path="url(#clip0_2100_228)">
<mask id="mask0_2100_228" style="mask-type:luminance" maskUnits="userSpaceOnUse" x="369" y="233" width="97" height="69">
<path d="M433.62 299.17C427.74 301.06 421.6 301.93 415.53 301.93C396.36 301.93 377.84 293.27 369.77 280.86C372.58 275.64 374.63 270.59 375.98 265.78C380.01 273.04 386.9 278.96 397.88 282.98C404.96 285.57 412.65 285.79 419.89 283.67C435.59 279.06 450.33 269.03 458.58 259.04L458.18 249.51L457.53 233.91C475.77 260.09 459.57 290.83 433.62 299.18V299.17Z" fill="white"/>
</mask>
<g mask="url(#mask0_2100_228)">
<path d="M374.52 251.62L374.36 290.41L372.58 290.36L374.52 251.62Z" fill="#404243"/>
<path d="M377.51 243.72L378.4 292.25H376.62L377.51 243.72Z" fill="#404243"/>
<path d="M381.65 296.22L381.09 224.13L383.43 296.19L381.65 296.22Z" fill="#404243"/>
<path d="M385.97 297.79L385.4 225.7L387.75 297.76L385.97 297.79Z" fill="#404243"/>
<path d="M390.87 301.55L390.3 229.45L392.65 301.51L390.87 301.55Z" fill="#404243"/>
<path d="M394.88 303.2L394.32 231.11L396.66 303.17L394.88 303.2Z" fill="#404243"/>
<path d="M399.87 303.91L399.31 231.81L401.65 303.87L399.87 303.91Z" fill="#404243"/>
<path d="M403.58 302.74L403.01 230.65L405.36 302.71L403.58 302.74Z" fill="#404243"/>
<path d="M407.94 302.74L407.37 230.65L409.72 302.71L407.94 302.74Z" fill="#404243"/>
<path d="M412.3 302.8L411.74 230.71L414.08 302.77L412.3 302.8Z" fill="#404243"/>
<path d="M417.42 302.63L416.86 230.53L419.2 302.59L417.42 302.63Z" fill="#404243"/>
<path d="M422.12 302.45L421.55 230.35L423.9 302.41L422.12 302.45Z" fill="#404243"/>
<path d="M426.19 302.45L425.62 230.35L427.97 302.41L426.19 302.45Z" fill="#404243"/>
<path d="M431.19 301.11L430.63 229.01L432.97 301.07L431.19 301.11Z" fill="#404243"/>
<path d="M435.57 300.76L435.01 228.66L437.35 300.72L435.57 300.76Z" fill="#404243"/>
<path d="M439.41 300.29L438.85 228.2L441.19 300.26L439.41 300.29Z" fill="#404243"/>
<path d="M443.65 297.15L443.09 225.05L445.43 297.11L443.65 297.15Z" fill="#404243"/>
<path d="M446.56 297.15L446 225.05L448.34 297.11L446.56 297.15Z" fill="#404243"/>
<path d="M450.4 295.88L449.83 223.78L452.18 295.84L450.4 295.88Z" fill="#404243"/>
<path d="M454.41 290.35L453.85 218.25L456.19 290.31L454.41 290.35Z" fill="#404243"/>
<path d="M458.02 287.85L455.73 216.27L459.8 287.81L458.02 287.85Z" fill="#404243"/>
</g>
<mask id="mask1_2100_228" style="mask-type:luminance" maskUnits="userSpaceOnUse" x="375" y="233" width="84" height="53">
<path d="M458.58 259.03C450.33 269.03 435.6 279.06 419.89 283.66C412.65 285.78 404.96 285.56 397.88 282.97C386.9 278.95 380.02 273.03 375.98 265.77L380.3 257.94L379.61 246.24H433L449.3 237.51L457.53 233.9L458.18 249.5L458.58 259.03Z" fill="white"/>
</mask>
<g mask="url(#mask1_2100_228)">
<path d="M437.58 255.35C438.26 267.53 438.06 279.7 436.97 291.85C436.28 279.67 436.49 267.5 437.58 255.35Z" fill="#918F8D"/>
<path d="M381.12 249.37C382.02 262.5 382.08 275.65 381.29 288.79C380.39 275.66 380.34 262.51 381.12 249.37Z" fill="#918F8D"/>
<path d="M385.11 252.25C386.01 265.38 386.07 278.53 385.28 291.67C384.37 278.54 384.33 265.39 385.11 252.25Z" fill="#918F8D"/>
<path d="M389.17 254.62C390.07 267.75 390.13 280.89 389.34 294.03C388.43 280.9 388.38 267.76 389.17 254.62Z" fill="#918F8D"/>
<path d="M393.74 255.59C394.64 268.72 394.71 281.85 393.92 294.99C393.01 281.86 392.96 268.73 393.74 255.59Z" fill="#918F8D"/>
<path d="M397.9 257.17C398.8 270.3 398.87 283.43 398.08 296.56C397.17 283.44 397.12 270.3 397.9 257.17Z" fill="#918F8D"/>
<path d="M402.4 259.42C403.3 272.54 403.37 285.68 402.58 298.81C401.67 285.69 401.62 272.55 402.4 259.42Z" fill="#918F8D"/>
<path d="M405.99 259.89C406.89 273.01 406.96 286.14 406.18 299.27C405.27 286.15 405.21 273.02 405.99 259.89Z" fill="#918F8D"/>
<path d="M410.97 259.97C411.88 273.09 411.95 286.21 411.16 299.34C410.25 286.22 410.19 273.1 410.97 259.97Z" fill="#918F8D"/>
<path d="M415.86 260.34C416.77 273.45 416.84 286.58 416.05 299.7C415.14 286.59 415.08 273.46 415.86 260.34Z" fill="#918F8D"/>
<path d="M420.14 260.33C421.05 273.44 421.12 286.56 420.34 299.68C419.43 286.57 419.37 273.45 420.14 260.33Z" fill="#918F8D"/>
<path d="M425.09 259.76C426 272.87 426.07 285.98 425.29 299.1C424.37 286 424.31 272.88 425.09 259.76Z" fill="#918F8D"/>
<path d="M428.34 259.01C429.25 272.11 429.32 285.23 428.54 298.34C427.62 285.24 427.56 272.12 428.34 259.01Z" fill="#918F8D"/>
<path d="M432.9 257.3C433.81 270.4 433.89 283.51 433.11 296.61C432.19 283.51 432.13 270.4 432.9 257.3Z" fill="#918F8D"/>
<path d="M442.12 253.82C443.03 266.91 443.11 280.01 442.33 293.11C441.41 280.02 441.34 266.92 442.12 253.82Z" fill="#918F8D"/>
<path d="M445.78 252.1C446.69 265.18 446.77 278.28 446 291.38C445.08 278.3 445.01 265.2 445.78 252.1Z" fill="#918F8D"/>
<path d="M449.3 248.04C450.22 261.12 450.3 274.21 449.52 287.3C448.6 274.22 448.53 261.13 449.3 248.04Z" fill="#918F8D"/>
<path d="M451.88 243.06C452.8 256.14 452.88 269.22 452.1 282.31C451.18 269.24 451.11 256.15 451.88 243.06Z" fill="#918F8D"/>
<path d="M455.96 237.51C456.88 250.58 456.96 263.66 456.19 276.74C455.27 263.67 455.2 250.59 455.96 237.51Z" fill="#918F8D"/>
</g>
<path d="M387.43 771.33C599.209 771.33 770.89 599.649 770.89 387.87C770.89 176.091 599.209 4.40991 387.43 4.40991C175.651 4.40991 3.97021 176.091 3.97021 387.87C3.97021 599.649 175.651 771.33 387.43 771.33Z" fill="black"/>
<path d="M387.75 0C173.6 0 0 173.6 0 387.75C0 601.9 173.6 775.5 387.75 775.5C601.9 775.5 775.5 601.9 775.5 387.75C775.5 173.6 601.9 0 387.75 0ZM387.75 762.91C180.55 762.91 12.59 594.94 12.59 387.75C12.59 180.56 180.55 12.59 387.75 12.59C594.95 12.59 762.91 180.56 762.91 387.75C762.91 594.94 594.94 762.91 387.75 762.91Z" fill="white"/>
<path d="M497.41 283.29L574.53 283.12C572.27 278.68 569.88 274.32 567.34 270.06L498.82 270.21C498.49 276.83 497.72 281.59 497.41 283.28V283.29Z" fill="#818181"/>
<path d="M493.8 230.46L537.24 230.35C531.56 224.37 525.55 218.71 519.25 213.41L485.89 213.51C489.31 219.02 491.88 224.75 493.8 230.47V230.46Z" fill="#818181"/>
<path d="M312.87 203.29C354.69 157.41 425.06 161.69 467.63 193.58C471.54 196.51 474.97 199.67 477.99 203.01L505.78 202.93C471.75 178.55 430.74 164 386.87 163.61C350.2 163.29 306.7 178.17 270.23 203.63L312.53 203.5C312.64 203.43 312.75 203.35 312.86 203.28L312.87 203.29Z" fill="#4D4D4D"/>
<path d="M498.87 259.15L560.3 259.01C556.19 252.95 551.8 247.1 547.14 241.49L496.77 241.61C498.03 247.79 498.64 253.75 498.86 259.15H498.87Z" fill="#818181"/>
<path d="M260.57 519.06C250.22 521.53 243.64 527.53 243.64 527.53H303.2L302.91 516.11C288.62 516.55 267.25 517.46 260.56 519.06H260.57Z" fill="#444444"/>
<path d="M469.13 549.88H528.45C532.58 546.12 536.56 542.2 540.37 538.12H469.23L469.13 549.88Z" fill="#5A5A58"/>
<path d="M463.68 567.45C455.17 576.04 434.64 589.41 389.22 589.41C336.29 589.41 315.74 575.52 308.17 567.14C306.55 565.35 305.38 563.22 304.68 560.94H256.83C290.3 586.89 334.44 602.2 388.93 602.2C438.08 602.2 481.09 586.9 515.17 560.94H467.84C466.93 563.35 465.54 565.58 463.7 567.44L463.68 567.45Z" fill="#444240"/>
<path d="M303.47 538.12H232.42C236.05 542.21 239.86 546.13 243.86 549.88H303.77L303.48 538.12H303.47Z" fill="#5C5C5A"/>
<path d="M469.31 527.53H549.54C552.62 523.72 555.57 519.8 558.39 515.77H469.4L469.31 527.53Z" fill="#545454"/>
<path d="M469.55 497.64L469.48 506.28L565.56 504.79C567.76 501.17 569.86 497.48 571.86 493.72L469.55 497.64Z" fill="#3E3E3E"/>
<path d="M276.4 242.14L228.01 242.26C223.39 247.88 219.13 253.73 215.3 259.8L269.16 259.68C271.03 253.54 273.4 247.71 276.4 242.15V242.14Z" fill="#818181"/>
<path d="M299.69 214.03L256.32 214.15C249.84 219.45 243.69 225.12 237.93 231.1L283.52 230.98C287.95 225.06 293.28 219.43 299.69 214.02V214.03Z" fill="#818181"/>
<path d="M262.89 316.41L194.33 317.08C193.73 322.07 193.42 327.14 193.44 332.28L263.05 328C262.96 324.04 262.91 320.18 262.9 316.41H262.89Z" fill="#818181"/>
<path d="M263.49 293.68L199.21 294.31C198.05 298.03 197.05 301.8 196.23 305.62L263 304.97C263.1 301.11 263.26 297.35 263.5 293.69L263.49 293.68Z" fill="#818181"/>
<path d="M266.39 270.75L208.92 270.88C206.69 275.15 204.67 279.5 202.89 283.95L264.37 283.81C264.88 279.31 265.55 274.96 266.39 270.75Z" fill="#818181"/>
<path d="M364.11 504.33C364.11 504.33 364.08 504.33 364.07 504.33C352.72 505.5 341.22 506.61 329.54 507.66V529.95C349.5 539.81 372.09 543.8 393.86 542.66V506.21C393.86 506.21 375.2 505.89 364.1 504.33H364.11Z" fill="white"/>
<path d="M434.69 495.84V501.65C434.69 501.65 434.79 528.75 434.72 533.96C437.18 532.99 439.6 531.95 441.96 530.82V494.82C439.56 495.17 437.12 495.5 434.7 495.84H434.69Z" fill="#939391"/>
<path d="M364.07 504.32C364.07 504.32 364.1 504.32 364.11 504.32C375.21 505.88 393.87 506.2 393.87 506.2V542.65C397.58 542.46 401.26 542.12 404.9 541.63V505.76C406.44 505.65 407.98 505.51 409.52 505.36V540.91C410.97 540.66 412.41 540.39 413.84 540.1V504.89C416.13 504.62 418.35 504.33 420.43 504.03V538.58C421.54 538.29 422.64 537.99 423.74 537.68V503.55C430.2 502.55 434.7 501.65 434.7 501.65V495.84C412.02 499 388.44 501.81 364.08 504.32H364.07Z" fill="#5C5A59"/>
<path d="M390.81 556.47C361.57 556.47 340.45 546.45 333.24 542.48C332.01 541.81 330.52 542.7 330.52 544.09V545.59C330.52 546.78 331.06 547.89 331.99 548.62C336.5 552.14 352.15 561.65 389.84 561.65C390.33 561.65 390.8 561.65 391.28 561.64V556.47C391.12 556.47 390.97 556.47 390.81 556.47Z" fill="url(#paint0_linear_2100_228)"/>
<path d="M439.17 542.64C432.37 546.69 413.8 556.33 391.28 556.47V561.64C420.83 561.35 435.62 552.2 440.28 548.62C441.34 547.8 441.95 546.54 441.95 545.19V544.24C441.95 542.81 440.39 541.92 439.16 542.65L439.17 542.64Z" fill="url(#paint1_linear_2100_228)"/>
<path d="M398.31 281.68C405.47 284.3 413.26 284.52 420.57 282.38C436.45 277.72 451.35 267.58 459.69 257.47L459.29 247.83C450.18 255.86 438.62 263.84 422.85 269.39C415.95 271.82 408.43 271.66 401.66 268.87C394.27 265.83 387.24 261.64 380.54 256.36L376.17 264.28C380.25 271.62 387.21 277.61 398.31 281.67V281.68Z" fill="#A3A29E"/>
<path d="M387.75 51.0599C518.98 51.0599 632.42 128.32 686.29 240.45C688.96 240.47 693.92 240.54 698.6 240.62C643.96 122.04 525.32 39.8899 387.76 39.8899C227.42 39.8899 92.7802 151.51 55.2402 302.33L66.9202 301.22C104.57 157.2 233.93 51.0599 387.75 51.0599Z" fill="#4F4F4F"/>
<path d="M387.75 724.44C262.56 724.44 153.58 654.13 97.0402 550.32H84.4902C142.03 660.53 256.24 735.61 387.75 735.61C538.28 735.61 666.15 637.23 712.3 500.4H700.61C654.92 630.94 532.11 724.43 387.75 724.43V724.44Z" fill="#4F4F4F"/>
<path d="M389.16 147.76C474.31 147.76 549.28 199.93 588.1 273.59H600.21C561.57 191.69 480.95 135.35 387.74 135.35C283.03 135.35 194.21 206.45 162.94 305.02L177.81 301.45C210.81 211.49 292.99 147.76 389.15 147.76H389.16Z" fill="white"/>
<path d="M389.16 619.76C303.84 619.76 234 579.14 195.3 514.35H182.77C220.97 584.33 292.04 630.88 387.75 630.88C491.96 630.88 570 572.01 604.7 487.15C600.19 487.73 594.98 488.38 592.22 488.71C558.31 561.27 488.99 619.77 389.16 619.77V619.76Z" fill="url(#paint2_linear_2100_228)"/>
<path d="M580.98 619.3C586.37 619.3 590.74 614.93 590.74 609.54C590.74 604.15 586.37 599.78 580.98 599.78C575.589 599.78 571.22 604.15 571.22 609.54C571.22 614.93 575.589 619.3 580.98 619.3Z" fill="#494A47"/>
<path d="M194.47 619.3C199.86 619.3 204.23 614.93 204.23 609.54C204.23 604.15 199.86 599.78 194.47 599.78C189.08 599.78 184.71 604.15 184.71 609.54C184.71 614.93 189.08 619.3 194.47 619.3Z" fill="#494A47"/>
<path d="M194.47 181.47C199.86 181.47 204.23 177.1 204.23 171.71C204.23 166.32 199.86 161.95 194.47 161.95C189.08 161.95 184.71 166.32 184.71 171.71C184.71 177.1 189.08 181.47 194.47 181.47Z" fill="#494A47"/>
<path d="M580.96 181.47C586.351 181.47 590.72 177.1 590.72 171.71C590.72 166.32 586.351 161.95 580.96 161.95C575.57 161.95 571.2 166.32 571.2 171.71C571.2 177.1 575.57 181.47 580.96 181.47Z" fill="#494A47"/>
<path d="M326.28 305.18C326.28 305.18 321.57 312.42 321.22 318.59C321.22 318.59 316.66 304.5 331.22 289.15C334.21 285.99 337.1 283.07 339.8 280.27L334.84 283.1C351.99 264 352.78 249.18 350.9 245.3C348.6 240.55 331.16 244.59 311.64 266.24C292.42 287.55 296.02 324.23 296.02 324.23L324.52 321.25L328.78 306.77L326.29 305.19L326.28 305.18Z" fill="#615F5F"/>
<path d="M311.63 266.24C331.16 244.59 348.59 240.55 350.89 245.3C352.77 249.18 351.98 264.01 334.83 283.1L339.79 280.27C350.21 269.45 357.85 260.44 358.16 246.71C358.59 227.04 335.1 221.56 313.84 236.12C292.63 250.64 286.75 283.68 286.75 325.19L296.01 324.22C296.01 324.22 292.41 287.54 311.63 266.23V266.24Z" fill="white"/>
<path d="M348.81 300.53C348.81 300.53 341.42 309.65 339.79 319.45C339.78 319.52 339.76 319.58 339.75 319.65L361.41 317.38C357.69 312.54 356.69 304.54 348.81 300.54V300.53Z" fill="#615F5F"/>
<path d="M472.92 254.47C472.92 287.47 444.69 306.47 413.75 306.47C382.81 306.47 366.22 285.76 366.22 285.76C367.56 283.66 368.78 281.59 369.89 279.54C378.05 292.09 396.78 300.85 416.16 300.85C422.3 300.85 428.5 299.97 434.45 298.06C460.69 289.62 477.07 258.53 458.63 232.06L459.29 247.83C450.18 255.87 438.62 263.84 422.85 269.39C415.95 271.82 408.42 271.66 401.66 268.87C394.27 265.83 387.24 261.64 380.54 256.37L376.17 264.29C385.02 232.89 365.12 210.9 340.84 209.47C364.75 177.88 472.92 193.22 472.92 254.47Z" fill="url(#paint3_linear_2100_228)"/>
<mask id="mask2_2100_228" style="mask-type:luminance" maskUnits="userSpaceOnUse" x="369" y="232" width="98" height="69">
<path d="M434.45 298.06C428.5 299.97 422.3 300.85 416.16 300.85C396.78 300.85 378.05 292.09 369.89 279.54C372.73 274.26 374.8 269.16 376.17 264.29C380.25 271.63 387.21 277.62 398.31 281.68C405.47 284.3 413.25 284.52 420.57 282.38C436.45 277.72 451.35 267.58 459.69 257.47L459.29 247.83L458.63 232.06C477.07 258.53 460.69 289.62 434.45 298.06Z" fill="white"/>
</mask>
<g mask="url(#mask2_2100_228)">
<path d="M374.69 249.98L374.53 289.2L372.73 289.15L374.69 249.98Z" fill="#404243"/>
<path d="M377.72 241.98L378.62 291.06H376.82L377.72 241.98Z" fill="#404243"/>
<path d="M381.91 295.08L381.34 222.18L383.71 295.04L381.91 295.08Z" fill="#404243"/>
<path d="M386.27 296.66L385.7 223.76L388.07 296.63L386.27 296.66Z" fill="#404243"/>
<path d="M391.22 300.46L390.65 227.56L393.02 300.42L391.22 300.46Z" fill="#404243"/>
<path d="M395.28 302.14L394.71 229.24L397.08 302.1L395.28 302.14Z" fill="#404243"/>
<path d="M400.33 302.85L399.76 229.95L402.13 302.81L400.33 302.85Z" fill="#404243"/>
<path d="M404.08 301.67L403.51 228.77L405.88 301.64L404.08 301.67Z" fill="#404243"/>
<path d="M408.49 301.67L407.92 228.77L410.29 301.64L408.49 301.67Z" fill="#404243"/>
<path d="M412.9 301.73L412.33 228.83L414.7 301.7L412.9 301.73Z" fill="#404243"/>
<path d="M418.07 301.55L417.5 228.65L419.87 301.52L418.07 301.55Z" fill="#404243"/>
<path d="M422.82 301.37L422.25 228.47L424.62 301.33L422.82 301.37Z" fill="#404243"/>
<path d="M426.94 301.37L426.37 228.47L428.74 301.33L426.94 301.37Z" fill="#404243"/>
<path d="M432 300.02L431.43 227.12L433.8 299.98L432 300.02Z" fill="#404243"/>
<path d="M436.43 299.66L435.86 226.76L438.23 299.63L436.43 299.66Z" fill="#404243"/>
<path d="M440.31 299.19L439.74 226.29L442.11 299.16L440.31 299.19Z" fill="#404243"/>
<path d="M444.6 296.01L444.03 223.11L446.4 295.98L444.6 296.01Z" fill="#404243"/>
<path d="M447.54 296.01L446.97 223.11L449.34 295.98L447.54 296.01Z" fill="#404243"/>
<path d="M451.42 294.73L450.85 221.83L453.22 294.69L451.42 294.73Z" fill="#404243"/>
<path d="M455.48 289.14L454.91 216.24L457.28 289.1L455.48 289.14Z" fill="#404243"/>
<path d="M459.13 286.61L456.81 214.23L460.93 286.57L459.13 286.61Z" fill="#404243"/>
</g>
<mask id="mask3_2100_228" style="mask-type:luminance" maskUnits="userSpaceOnUse" x="376" y="232" width="84" height="52">
<path d="M459.69 257.47C451.35 267.58 436.45 277.72 420.57 282.38C413.25 284.52 405.47 284.3 398.31 281.68C387.21 277.62 380.25 271.63 376.17 264.29L380.54 256.37L379.84 244.54H433.83L450.31 235.71L458.63 232.06L459.29 247.83L459.69 257.47Z" fill="white"/>
</mask>
<g mask="url(#mask3_2100_228)">
<path d="M438.46 253.75C439.15 266.06 438.95 278.37 437.85 290.66C437.16 278.35 437.37 266.04 438.46 253.75Z" fill="#918F8D"/>
<path d="M381.36 247.7C382.27 260.98 382.33 274.27 381.53 287.56C380.62 274.28 380.57 260.99 381.36 247.7Z" fill="#918F8D"/>
<path d="M385.41 250.61C386.32 263.89 386.38 277.18 385.58 290.47C384.66 277.19 384.61 263.9 385.41 250.61Z" fill="#918F8D"/>
<path d="M389.51 253.01C390.42 266.29 390.48 279.58 389.68 292.86C388.76 279.58 388.71 266.29 389.51 253.01Z" fill="#918F8D"/>
<path d="M394.13 253.99C395.04 267.26 395.11 280.55 394.31 293.83C393.39 280.56 393.34 267.27 394.13 253.99Z" fill="#918F8D"/>
<path d="M398.34 255.59C399.25 268.86 399.32 282.14 398.52 295.42C397.6 282.15 397.55 268.87 398.34 255.59Z" fill="#918F8D"/>
<path d="M402.89 257.87C403.8 271.14 403.87 284.42 403.07 297.7C402.15 284.43 402.1 271.15 402.89 257.87Z" fill="#918F8D"/>
<path d="M406.52 258.34C407.43 271.61 407.5 284.89 406.71 298.16C405.79 284.89 405.73 271.61 406.52 258.34Z" fill="#918F8D"/>
<path d="M411.55 258.42C412.47 271.68 412.54 284.96 411.74 298.23C410.82 284.97 410.76 271.69 411.55 258.42Z" fill="#918F8D"/>
<path d="M416.5 258.79C417.42 272.05 417.49 285.32 416.7 298.59C415.78 285.33 415.72 272.06 416.5 258.79Z" fill="#918F8D"/>
<path d="M420.82 258.78C421.74 272.04 421.81 285.3 421.02 298.57C420.09 285.31 420.04 272.05 420.82 258.78Z" fill="#918F8D"/>
<path d="M425.83 258.2C426.75 271.45 426.82 284.72 426.03 297.98C425.1 284.73 425.04 271.47 425.83 258.2Z" fill="#918F8D"/>
<path d="M429.12 257.45C430.04 270.7 430.12 283.96 429.33 297.22C428.4 283.97 428.34 270.71 429.12 257.45Z" fill="#918F8D"/>
<path d="M433.73 255.72C434.65 268.96 434.73 282.22 433.94 295.47C433.01 282.23 432.95 268.97 433.73 255.72Z" fill="#918F8D"/>
<path d="M443.05 252.21C443.97 265.44 444.05 278.69 443.27 291.94C442.34 278.71 442.27 265.46 443.05 252.21Z" fill="#918F8D"/>
<path d="M446.75 250.46C447.67 263.69 447.76 276.93 446.97 290.17C446.04 276.94 445.97 263.7 446.75 250.46Z" fill="#918F8D"/>
<path d="M450.31 246.36C451.24 259.59 451.32 272.82 450.53 286.06C449.6 272.83 449.53 259.6 450.31 246.36Z" fill="#918F8D"/>
<path d="M452.92 241.32C453.85 254.54 453.93 267.77 453.14 281.01C452.21 267.79 452.14 254.56 452.92 241.32Z" fill="#918F8D"/>
<path d="M457.04 235.71C457.97 248.92 458.05 262.15 457.27 275.38C456.34 262.17 456.27 248.94 457.04 235.71Z" fill="#918F8D"/>
</g>
<path d="M64.0898 511.8L49.3398 369.01L120.74 361.63C154.74 358.12 173.49 373.36 177.01 407.36C178.16 418.44 175.63 427.29 169.44 433.91C176.85 439.12 181.13 447.27 182.27 458.36C185.08 485.56 169.48 500.91 135.49 504.43L64.0898 511.81V511.8ZM94.3498 405.59L96.4598 425.99L127.06 422.83C133.86 422.13 136.91 418.38 136.21 411.58C135.51 404.78 131.76 401.73 124.96 402.43L94.3598 405.59H94.3498ZM99.6198 456.59L101.73 476.99L132.33 473.83C139.13 473.13 142.18 469.38 141.48 462.58C140.78 455.78 137.03 452.73 130.23 453.43L99.6298 456.59H99.6198Z" fill="white"/>
<path d="M285.86 344.4L290.07 385.2L228.32 392.57L229.37 402.77L281.16 397.42L285.37 438.22L233.58 443.57L234.63 453.77L296.38 446.4L300.59 487.2L198.04 498.79L183.29 356L285.84 344.41L285.86 344.4Z" fill="white"/>
<path d="M348.38 418.08L355 482.13L314.2 486.34L299.45 343.55L340.25 339.34L346.91 403.8L386.15 334.6L432.05 329.86L388.45 406.73L446.8 472.66L400.9 477.4L348.39 418.09L348.38 418.08Z" fill="white"/>
<path d="M520.26 465.05L481.93 469.26L472.03 367.26L433.7 371.47L429.74 330.67L544.72 318.03L548.68 358.83L510.35 363.04L520.25 465.04L520.26 465.05Z" fill="white"/>
<path d="M595.87 312.78L610.62 455.57L569.82 459.78L555.07 316.99L595.87 312.78Z" fill="white"/>
<path d="M676.53 305.59L722.43 300.85L726.64 341.65L680.74 346.39C672.31 347.26 665.41 351 660.04 357.6C654.67 364.2 652.43 371.72 653.3 380.15C654.17 388.58 657.91 395.48 664.51 400.85C671.11 406.22 678.63 408.46 687.06 407.59L732.96 402.85L737.17 443.65L691.27 448.39C671.55 450.43 654 445.2 638.62 432.7C623.24 420.2 614.53 404.09 612.5 384.37C610.46 364.65 615.69 347.1 628.19 331.72C640.69 316.34 656.8 307.63 676.52 305.6L676.53 305.59Z" fill="white"/>
<path d="M241.46 165.25L253.52 157.5C255.16 156.45 256.65 155.23 257.95 153.88C259.27 152.52 260.27 151.02 260.94 149.43C261.61 147.82 261.88 146.1 261.75 144.3C261.61 142.5 260.92 140.62 259.68 138.69C258.59 137 257.17 135.66 255.46 134.72C254.72 134.32 254 134.02 253.33 133.82C252.66 133.62 251.97 133.49 251.29 133.45C250.61 133.4 249.91 133.43 249.19 133.51C248.64 133.58 248.05 133.68 247.45 133.8C248 132.25 248.21 130.76 248.08 129.38C247.93 127.84 247.35 126.27 246.34 124.7C245.88 123.99 245.34 123.32 244.73 122.71C244.12 122.1 243.44 121.56 242.71 121.11C241.98 120.66 241.2 120.3 240.38 120.02C239.55 119.75 238.7 119.6 237.83 119.58C237.06 119.56 236.27 119.64 235.49 119.83C234.72 120.02 233.95 120.28 233.2 120.59C232.46 120.9 231.72 121.26 231.02 121.65C230.31 122.04 229.65 122.44 229.05 122.82L218.55 129.57L241.32 164.98L241.48 165.23L241.46 165.25ZM251.52 148.48C251.17 149.17 250.66 149.81 250.03 150.4C249.38 151 248.66 151.56 247.9 152.05L245.41 153.65L239.51 144.47L242.4 142.61C243.23 142.08 244.06 141.67 244.87 141.41C245.66 141.15 246.44 141.06 247.18 141.13C247.91 141.2 248.62 141.46 249.29 141.89C249.97 142.33 250.59 142.99 251.15 143.86C251.7 144.72 252 145.54 252.01 146.31C252.03 147.08 251.86 147.8 251.52 148.47V148.48ZM235.72 128.6C236.26 128.6 236.79 128.73 237.28 128.97C237.77 129.22 238.22 129.65 238.61 130.26C239.44 131.56 239.7 132.8 239.37 133.96C239.03 135.13 238.19 136.16 236.87 137.01L235.35 137.99L230.72 130.79L232.3 129.78C232.85 129.43 233.43 129.14 234.02 128.91C234.59 128.7 235.17 128.58 235.72 128.58V128.6Z" fill="white"/>
<path d="M293.08 134.75C294.39 135.02 295.75 135.16 297.13 135.16C297.65 135.16 298.18 135.14 298.7 135.1C300.63 134.96 302.62 134.52 304.61 133.8C307.51 132.75 310.03 131.23 312.1 129.28C314.17 127.33 315.8 125.08 316.92 122.59C318.05 120.1 318.66 117.37 318.75 114.47C318.84 111.58 318.35 108.64 317.29 105.72C316.23 102.78 314.73 100.2 312.85 98.0202C310.97 95.8402 308.77 94.1302 306.31 92.9202C303.85 91.7102 301.14 91.0202 298.25 90.8802C295.36 90.7302 292.35 91.2202 289.29 92.3202C286.47 93.3402 284.02 94.8702 282.03 96.8402C280.03 98.8202 278.49 101.1 277.43 103.62C276.37 106.14 275.8 108.87 275.71 111.72C275.63 114.57 276.1 117.43 277.1 120.2C277.78 122.09 278.67 123.87 279.73 125.48C280.79 127.1 282.02 128.54 283.38 129.78C284.74 131.02 286.25 132.07 287.88 132.91C289.51 133.75 291.24 134.36 293.04 134.73L293.08 134.75ZM297.7 99.8802C299.26 100.05 300.7 100.54 301.98 101.34C303.27 102.15 304.43 103.23 305.43 104.55C306.43 105.88 307.25 107.4 307.86 109.08C308.45 110.7 308.79 112.37 308.89 114.04C308.98 115.7 308.79 117.29 308.3 118.76C307.81 120.23 307.02 121.56 305.93 122.74C304.85 123.91 303.39 124.83 301.61 125.47C299.92 126.08 298.3 126.29 296.76 126.09C295.22 125.89 293.78 125.39 292.47 124.59C291.16 123.79 289.99 122.73 288.99 121.43C287.99 120.13 287.19 118.65 286.61 117.05C286.04 115.46 285.7 113.81 285.6 112.14C285.5 110.47 285.69 108.86 286.16 107.36C286.62 105.87 287.4 104.51 288.47 103.32C289.53 102.14 290.97 101.22 292.73 100.58C294.48 99.9502 296.15 99.7102 297.71 99.8802H297.7Z" fill="white"/>
<path d="M382.37 116.56L365.25 96.1501L376.31 74.5801L366.37 75.7001L359.3 89.1501L349.69 77.5901L339.47 78.7501L355.17 97.3601L342.87 121.03L353.03 119.88L361.07 104.24L372.4 117.69L382.37 116.56Z" fill="white"/>
<path d="M407.729 75.0882L404.883 117.383L414.421 118.024L417.267 75.7301L407.729 75.0882Z" fill="white"/>
<path d="M487.06 89.4401L477.97 87.0401L471.18 112.77L459.8 82.2501L450.78 79.8601L440.04 120.57L439.96 120.85L449.24 123.3L456.08 97.3901L467.35 128.08L476.24 130.43L486.99 89.7201L487.06 89.4401Z" fill="white"/>
<path d="M508.48 144.29C510.26 146.55 512.63 148.5 515.52 150.07C517.91 151.37 520.41 152.19 522.95 152.5C523.77 152.6 524.58 152.65 525.39 152.65C527.09 152.65 528.75 152.43 530.37 151.99C532.75 151.34 534.99 150.21 537.02 148.63C539.05 147.05 540.77 145 542.11 142.53L544.43 138.28L526.94 128.76L522.76 136.43L531.79 141.35C531.06 142.05 530.28 142.61 529.45 143.01C528.51 143.47 527.53 143.76 526.52 143.87C525.51 143.98 524.47 143.93 523.43 143.7C522.38 143.47 521.34 143.07 520.32 142.52C518.69 141.63 517.36 140.52 516.39 139.21C515.41 137.9 514.73 136.46 514.38 134.91C514.02 133.36 513.98 131.73 514.24 130.05C514.51 128.37 515.09 126.7 515.96 125.1C517.03 123.13 518.25 121.57 519.59 120.45C521.54 118.81 523.69 117.86 525.97 117.64C528.25 117.42 530.56 117.93 532.82 119.16C536.57 121.2 538.7 124.46 539.14 128.83L539.17 129.15L548.58 127.3L548.53 127.02C548.18 125.08 547.69 123.32 547.07 121.79C546.45 120.25 545.65 118.85 544.69 117.6C543.73 116.36 542.57 115.2 541.24 114.17C539.91 113.14 538.34 112.13 536.57 111.17C533.84 109.69 531.03 108.79 528.22 108.5C525.4 108.21 522.66 108.47 520.08 109.27C517.5 110.07 515.07 111.41 512.87 113.25C510.67 115.09 508.79 117.43 507.28 120.21C505.79 122.95 504.82 125.78 504.41 128.62C503.99 131.47 504.13 134.25 504.8 136.88C505.47 139.52 506.72 142.01 508.5 144.27L508.48 144.29Z" fill="white"/>
<path d="M254.67 617.22L247.09 611.44L228.99 635.17C228.66 635.61 228.3 636 227.93 636.33C227.57 636.65 227.19 636.9 226.79 637.07C226.41 637.23 226 637.27 225.58 637.21C225.15 637.15 224.69 636.93 224.21 636.56C223.6 636.09 223.1 635.55 222.73 634.94C222.36 634.32 222.07 633.64 221.89 632.91L221.82 632.63L211.95 634.93L212.03 635.22C212.61 637.23 213.48 638.99 214.63 640.45C215.77 641.9 217.19 643.27 218.84 644.53C220.45 645.76 222.06 646.58 223.62 646.98C224.5 647.21 225.37 647.32 226.22 647.32C226.89 647.32 227.55 647.25 228.2 647.11C229.67 646.8 231.1 646.14 232.45 645.15C233.79 644.17 235.06 642.91 236.21 641.39L254.48 617.44L254.66 617.21L254.67 617.22Z" fill="white"/>
<path d="M250.54 664L250.4 664.26L258.82 668.79L278.78 631.72L278.91 631.46L270.49 626.93L250.54 664Z" fill="white"/>
<path d="M309.9 671.66C309.52 672.82 309.03 673.83 308.43 674.67C307.84 675.5 307.14 676.17 306.34 676.64C305.55 677.11 304.65 677.4 303.65 677.48C302.65 677.56 301.53 677.4 300.32 677.01C299.27 676.67 298.39 676.18 297.68 675.56C296.98 674.94 296.45 674.22 296.11 673.41C295.77 672.6 295.59 671.69 295.59 670.72C295.59 669.74 295.76 668.71 296.1 667.65L304.28 642.51L295.31 639.59L286.68 666.12C286.25 667.43 285.99 668.68 285.88 669.84C285.68 671.9 285.84 673.83 286.34 675.55C286.84 677.28 287.63 678.85 288.69 680.21C289.74 681.57 291.07 682.77 292.63 683.78C294.19 684.78 295.95 685.61 297.86 686.23C299.92 686.9 301.97 687.24 303.96 687.24C304.29 687.24 304.63 687.23 304.96 687.21C306.56 687.12 308.07 686.78 309.47 686.21C310.87 685.64 312.16 684.88 313.3 683.95C314.44 683.02 315.45 681.9 316.3 680.62C317.14 679.34 317.82 677.94 318.3 676.45L326.95 649.86L317.95 646.93L309.91 671.65L309.9 671.66Z" fill="white"/>
<path d="M381.59 686.42C381.58 686.97 381.52 687.5 381.41 687.99C381.31 688.46 381.14 688.89 380.92 689.26C380.7 689.61 380.41 689.88 380.02 690.08C379.64 690.28 379.14 690.38 378.53 690.36C377.76 690.34 377.04 690.19 376.39 689.91C375.73 689.63 375.1 689.24 374.52 688.76L374.3 688.58L367.64 696.22L367.88 696.41C369.53 697.7 371.27 698.62 373.05 699.13C374.82 699.64 376.78 699.92 378.85 699.98C379.01 699.98 379.18 699.98 379.34 699.98C381.16 699.98 382.78 699.71 384.16 699.16C385.67 698.57 386.94 697.7 387.95 696.58C388.96 695.47 389.73 694.09 390.25 692.5C390.76 690.92 391.05 689.15 391.1 687.25L391.89 656.84L382.36 656.59L381.58 686.42H381.59Z" fill="white"/>
<path d="M420.566 655.186L411.04 655.996L414.631 698.234L424.157 697.424L420.566 655.186Z" fill="white"/>
<path d="M465.51 647.18L437.75 653.24L437.47 653.3L439.49 662.55L448.79 660.52L455.81 692.69L465.18 690.64L458.16 658.47L467.53 656.42L465.51 647.18Z" fill="white"/>
<path d="M512.66 656.33C511.62 655.26 510.43 654.42 509.1 653.85C507.79 653.28 506.32 652.9 504.75 652.72C503.19 652.54 501.5 652.46 499.75 652.49C499.19 652.5 498.53 652.49 497.81 652.43C497.11 652.38 496.42 652.26 495.76 652.08C495.11 651.9 494.5 651.63 493.97 651.27C493.46 650.93 493.07 650.45 492.83 649.86C492.43 648.87 492.37 647.95 492.65 647.13C492.93 646.31 493.57 645.71 494.6 645.29C495.65 644.86 496.76 644.69 497.89 644.77C499.05 644.86 500.2 645.04 501.3 645.31L501.55 645.37L504.61 637.03L504.32 636.94C502.17 636.27 500.05 635.96 497.97 635.97C495.9 636 493.79 636.45 491.68 637.31C489.95 638.02 488.42 638.96 487.14 640.11C485.86 641.26 484.86 642.59 484.16 644.06C483.46 645.53 483.08 647.15 483.04 648.87C483 650.59 483.35 652.4 484.1 654.24C484.7 655.7 485.45 656.95 486.35 657.95C487.25 658.95 488.3 659.77 489.46 660.37C490.62 660.97 491.91 661.39 493.29 661.61C494.66 661.82 496.14 661.89 497.68 661.82C498.9 661.75 500.01 661.74 500.97 661.77C501.49 661.78 502.02 661.83 502.54 661.9C503.05 661.98 503.53 662.11 503.96 662.3C504.39 662.49 504.78 662.74 505.12 663.06C505.46 663.37 505.74 663.8 505.95 664.33C506.18 664.9 506.3 665.47 506.29 666.03C506.29 666.59 506.17 667.11 505.97 667.59C505.76 668.07 505.45 668.51 505.04 668.9C504.63 669.29 504.12 669.61 503.53 669.85C502.87 670.12 502.19 670.27 501.5 670.32C500.79 670.36 500.09 670.32 499.4 670.19C498.7 670.06 497.99 669.88 497.31 669.65C496.62 669.42 495.95 669.16 495.31 668.87L495.02 668.74L491.96 677.95L492.23 678.05C493.42 678.49 494.62 678.87 495.78 679.2C496.96 679.53 498.16 679.76 499.36 679.89C499.92 679.95 500.48 679.98 501.05 679.98C501.7 679.98 502.35 679.94 502.99 679.86C504.2 679.72 505.44 679.39 506.68 678.88C508.49 678.14 510.13 677.13 511.54 675.88C512.96 674.63 514.09 673.18 514.91 671.58C515.73 669.97 516.2 668.21 516.31 666.35C516.42 664.48 516.08 662.55 515.29 660.61C514.57 658.86 513.69 657.42 512.65 656.34L512.66 656.33Z" fill="white"/>
<path d="M562.74 634.43C562.25 632.98 561.55 631.59 560.66 630.3L545.04 607.46L544.88 607.22L537.07 612.56L551.74 634.01C552.43 635.01 552.93 636.03 553.23 637.01C553.53 637.99 553.63 638.95 553.52 639.87C553.41 640.79 553.08 641.67 552.54 642.51C552 643.35 551.19 644.14 550.14 644.86C549.23 645.48 548.3 645.89 547.38 646.06C546.46 646.24 545.57 646.21 544.72 645.99C543.87 645.76 543.04 645.35 542.27 644.76C541.49 644.17 540.78 643.4 540.15 642.48L525.39 620.9L525.23 620.66L517.44 625.98L533.19 649.01C533.97 650.14 534.79 651.12 535.65 651.92C537.17 653.33 538.78 654.39 540.46 655.04C542.13 655.69 543.85 656.03 545.57 656.03H545.59C547.31 656.03 549.07 655.71 550.82 655.09C552.56 654.47 554.29 653.58 555.95 652.44C558.04 651.01 559.76 649.32 561.06 647.42C561.96 646.1 562.62 644.7 563.03 643.24C563.43 641.79 563.62 640.31 563.58 638.83C563.54 637.35 563.27 635.87 562.77 634.43H562.74Z" fill="white"/>
</g>
<defs>
<linearGradient id="paint0_linear_2100_228" x1="390.52" y1="561.91" x2="330.41" y2="546.15" gradientUnits="userSpaceOnUse">
<stop offset="0.22" stop-color="#FEFEFE"/>
<stop offset="0.28" stop-color="#FEFEFE"/>
<stop offset="1" stop-color="#FEFEFE"/>
</linearGradient>
<linearGradient id="paint1_linear_2100_228" x1="388.66" y1="564.34" x2="441.72" y2="542.93" gradientUnits="userSpaceOnUse">
<stop offset="0.39" stop-color="#939391"/>
<stop offset="0.5" stop-color="#9E9E9C"/>
<stop offset="0.68" stop-color="#BCBCBB"/>
<stop offset="0.92" stop-color="#EDEDED"/>
<stop offset="1" stop-color="white"/>
</linearGradient>
<linearGradient id="paint2_linear_2100_228" x1="393.61" y1="484.23" x2="394.67" y2="624.34" gradientUnits="userSpaceOnUse">
<stop offset="0.14" stop-color="#BBBBBB"/>
<stop offset="0.46" stop-color="#EFEFEF"/>
<stop offset="1" stop-color="#E9E9E9"/>
</linearGradient>
<linearGradient id="paint3_linear_2100_228" x1="396.69" y1="299.35" x2="407.98" y2="227.12" gradientUnits="userSpaceOnUse">
<stop offset="0.22" stop-color="#71716F"/>
<stop offset="0.27" stop-color="#848482"/>
<stop offset="0.37" stop-color="#A9A9A8"/>
<stop offset="0.48" stop-color="#C8C8C7"/>
<stop offset="0.6" stop-color="#E0E0E0"/>
<stop offset="0.72" stop-color="#F1F1F1"/>
<stop offset="0.84" stop-color="#FBFBFB"/>
<stop offset="1" stop-color="white"/>
</linearGradient>
<clipPath id="clip0_2100_228">
<rect width="775.5" height="775.5" fill="white"/>
</clipPath>
</defs>
</svg>
