<svg width="56" height="49" viewBox="0 0 56 49" fill="none" xmlns="http://www.w3.org/2000/svg">
<path d="M49.7919 0H38.8984C38.4816 0 38.0819 0.16573 37.7871 0.460434L28.0126 10.2364L18.2382 0.460434C17.9436 0.16573 17.5438 0 17.1268 0H6.20825C2.78502 0 0 2.78547 0 6.20925V16.4951C0 17.3634 0.70372 18.0671 1.57172 18.0671H8.99458V26.4911V32.7791C8.99458 33.6474 9.6983 34.3511 10.5663 34.3511H24.2053L20.5861 37.9709C19.9722 38.5848 19.9722 39.5802 20.5861 40.1942C21.1999 40.8081 22.1951 40.8081 22.809 40.1942L28.0001 35.0023L33.1911 40.1943C33.4981 40.5013 33.9003 40.6547 34.3025 40.6547C34.7046 40.6547 35.1069 40.5013 35.4138 40.1943C36.0276 39.5804 36.0276 38.585 35.4138 37.971L31.7946 34.3512H43.8619V45.8559H12.1381V41.7922C12.1381 40.924 11.4344 40.2202 10.5664 40.2202C9.69841 40.2202 8.99469 40.9241 8.99469 41.7922V47.428C8.99469 48.2963 9.69841 49 10.5664 49H45.4337C46.3016 49 47.0054 48.2962 47.0054 47.428V32.7792V26.4912C47.0054 25.623 46.3016 24.9192 45.4337 24.9192H17.7781L39.5495 3.14406H49.7919C51.4816 3.14406 52.8564 4.51913 52.8564 6.20935V14.9233H45.4336C44.5657 14.9233 43.8619 15.6271 43.8619 16.4952C43.8619 17.3634 44.5657 18.0672 45.4336 18.0672H54.4283C55.2962 18.0672 56 17.3634 56 16.4952V6.20925C56.0001 2.78547 53.2151 0 49.7919 0ZM3.14344 14.923V6.20925C3.14344 4.51924 4.51829 3.14395 6.20825 3.14395H16.476L25.79 12.4595L13.3325 24.919H12.1382V16.495C12.1382 15.6268 11.4345 14.923 10.5665 14.923H3.14344ZM43.862 31.2073H12.1381V28.0633H43.862V31.2073Z" fill="white"/>
</svg>
