<svg width="81" height="81" viewBox="0 0 81 81" fill="none" xmlns="http://www.w3.org/2000/svg">
<g clip-path="url(#clip0_59_464)">
<path d="M43.6681 14.6975C47.7267 14.6975 51.0168 11.4073 51.0168 7.34875C51.0168 3.29015 47.7267 0 43.6681 0C39.6095 0 36.3193 3.29015 36.3193 7.34875C36.3193 11.4073 39.6095 14.6975 43.6681 14.6975Z" fill="white"/>
<path d="M66.18 75.5505L64.7289 72.0176L65.3716 71.7496L65.1125 70.99C62.3037 62.7454 59.4147 52.9998 57.5151 46.3811C58.0347 47.3434 58.5797 48.2926 59.1586 49.2194C59.8204 50.278 60.925 48.3355 60.4009 47.5002C59.5435 46.1292 58.7618 44.715 58.0613 43.2611C58.1516 43.2831 58.2405 43.3055 58.3323 43.3263C59.2547 43.5395 59.7715 44.037 60.1758 44.8959C60.3254 45.2113 60.5105 45.3535 60.8584 45.3609C61.3634 45.3743 61.9454 45.2187 62.2235 44.748C62.3687 44.5065 62.502 44.2785 62.567 44.0018C62.5893 43.9189 62.6039 43.836 62.6144 43.7517C62.6248 43.6953 62.6352 43.6554 62.6454 43.6214C62.9414 43.2365 63.0481 42.6811 62.8705 42.228C62.6853 41.7558 62.1612 41.6106 61.7776 41.966C61.52 42.2029 61.3334 42.4796 61.215 42.7995C60.8227 42.1747 60.3237 41.6476 59.6011 41.3498C58.7807 41.0123 57.8849 40.987 57.1121 40.5222C56.9049 40.3979 56.7109 40.3949 56.5332 40.4614C56.3436 40.4436 56.1438 40.5592 55.9691 40.7398C55.7944 39.1303 55.6123 37.5208 55.4167 35.9143C58.1012 34.3358 60.7264 32.4896 63.4199 30.2862C64.4623 29.4348 65.0619 28.1303 65.1152 26.6141C65.1731 24.9527 64.5542 23.3507 63.4643 22.329C59.28 18.4038 54.2767 17.1881 48.9802 15.8984L48.6174 15.8096C48.4663 15.7577 48.3065 15.7312 48.1407 15.7312C46.8436 15.7312 45.2592 17.6382 44.2214 19.1308C43.3211 17.7938 42.0995 16.3501 41.0289 16.3501C40.7875 16.3501 40.5522 16.4138 40.3463 16.5367C39.4919 17.0533 38.7603 16.8312 38.1653 17.5717L22.1077 11.1406V14.2041L18.2712 12.7412C16.5878 12.3903 14.9398 13.4683 14.5902 15.1503C14.2378 16.8307 15.3158 18.4817 16.9992 18.8313L22.1077 20.614V23.5725L37.3203 29.5738C37.9586 33.9373 38.539 38.5201 39.0512 43.2184C34.008 44.5006 29.0507 46.5573 24.308 49.338C22.8866 50.1701 22.0144 51.4272 21.8441 52.8916C21.6739 53.3283 21.5568 53.7933 21.5007 54.273L19.4219 71.3143L20.8212 71.5793L20.2068 75.1847C19.8396 77.3347 21.2848 79.3735 23.4348 79.7408C25.5848 80.1065 27.6265 78.6613 27.9923 76.5098L28.5832 73.0479L30.0046 73.3189L31.9531 57.3809C36.5729 54.9703 43.9688 51.889 45.5768 51.2272C46.3245 51.3441 47.099 51.3664 47.8792 51.294L56.4937 75.4572L57.4399 75.0619L58.8747 78.5519C59.7038 80.5686 62.0109 81.5324 64.0276 80.7019C66.0453 79.8755 67.0079 77.5685 66.18 75.5505ZM38.909 28.5933L38.8008 27.8618L23.8221 21.8608V14.145L39.0348 20.1463L39.2909 19.7865C39.7559 19.1306 40.3555 18.5663 41.0721 18.106C41.5637 18.3918 42.6476 19.7659 43.4633 21.1533L44.18 22.3779L44.9291 21.1726C46.0706 19.3366 47.5707 17.5923 48.1097 17.4561L48.5732 17.5685C53.6447 18.8018 58.4345 19.9671 62.2918 23.5829C63.0144 24.2611 63.4392 25.4011 63.4022 26.5575C63.3668 27.5747 62.9891 28.4291 62.3347 28.9621C59.8842 30.9669 57.4913 32.6504 55.0616 34.1164L53.2345 26.3783L51.5642 26.7737L51.8057 27.7953L47.1208 29.7038C45.5306 30.3522 44.7651 32.1677 45.4135 33.7594C46.0619 35.3495 47.8759 36.1136 49.4691 35.4651L53.3308 34.2495L53.6507 35.6073C53.8683 37.402 54.0742 39.1966 54.2695 40.9939H40.523C40.0371 36.7282 39.4966 32.5645 38.909 28.5933ZM49.0189 49.3896L48.3097 49.511C47.4109 49.6651 46.49 49.6606 45.6356 49.4991L45.3855 49.4517L45.1515 49.548C44.1949 49.9403 35.6795 53.4556 30.7518 56.0748L30.3579 56.285L28.5234 71.2947L21.3168 69.9296L23.1988 54.4832C23.2447 54.11 23.335 53.7695 23.4757 53.4362L23.538 53.1772C23.6224 52.2119 24.1879 51.396 25.1726 50.817C30.0026 47.9888 35.0532 45.9336 40.1837 44.7063L40.9168 44.5316L40.8369 43.7824C40.8294 43.7144 40.8205 43.6477 40.8133 43.5797H54.9331C56.6699 49.7274 59.9793 61.1525 63.2308 70.7828L57.5034 73.1769L49.0189 49.3896Z" fill="white"/>
</g>
<defs>
<clipPath id="clip0_59_464">
<rect width="81" height="81" fill="white"/>
</clipPath>
</defs>
</svg>
