<svg width="862" height="229" viewBox="0 0 862 229" fill="none" xmlns="http://www.w3.org/2000/svg">
<path d="M671.96 138.57V134.83C672.36 134.93 672.81 134.98 673.31 134.98C674.13 134.98 674.74 134.77 675.14 134.36C675.54 133.95 675.74 133.32 675.74 132.47V112.39H679.85V132.36C679.85 134.5 679.36 136.1 678.37 137.15C677.38 138.2 675.88 138.72 673.86 138.72C673.11 138.72 672.48 138.67 671.95 138.57H671.96Z" fill="white"/>
<path d="M687.14 112.39H691.25V138.57H687.14V112.39Z" fill="white"/>
<path d="M700.08 137.25C699.03 136.12 698.51 134.49 698.51 132.37V112.4H702.62V132.67C702.62 133.57 702.8 134.22 703.16 134.61C703.52 135.01 704.04 135.21 704.71 135.21C705.38 135.21 705.9 135.01 706.26 134.61C706.62 134.21 706.8 133.56 706.8 132.67V112.4H710.76V132.37C710.76 134.49 710.24 136.12 709.19 137.25C708.14 138.39 706.62 138.95 704.63 138.95C702.64 138.95 701.11 138.38 700.07 137.25H700.08Z" fill="white"/>
<path d="M727.42 138.57V134.83C727.82 134.93 728.27 134.98 728.77 134.98C729.59 134.98 730.2 134.77 730.6 134.36C731 133.95 731.2 133.32 731.2 132.47V112.39H735.31V132.36C735.31 134.5 734.82 136.1 733.83 137.15C732.84 138.2 731.34 138.72 729.32 138.72C728.57 138.72 727.94 138.67 727.41 138.57H727.42Z" fill="white"/>
<path d="M742.61 112.39H746.72V138.57H742.61V112.39Z" fill="white"/>
<path d="M757.34 116.13H753.04V112.39H765.76V116.13H761.46V138.57H757.35V116.13H757.34Z" fill="white"/>
<path d="M772.9 137.25C771.88 136.12 771.37 134.49 771.37 132.37V130.87H775.26V132.66C775.26 134.36 775.97 135.2 777.39 135.2C778.09 135.2 778.62 134.99 778.98 134.58C779.34 134.17 779.52 133.5 779.52 132.58C779.52 131.48 779.27 130.52 778.77 129.68C778.27 128.85 777.35 127.84 776 126.67C774.3 125.17 773.12 123.82 772.45 122.61C771.78 121.4 771.44 120.04 771.44 118.51C771.44 116.44 771.96 114.84 773.01 113.7C774.06 112.57 775.58 112 777.57 112C779.56 112 781.03 112.57 782.04 113.7C783.05 114.83 783.55 116.46 783.55 118.58V119.66H779.66V118.31C779.66 117.41 779.49 116.76 779.14 116.35C778.79 115.94 778.28 115.73 777.61 115.73C776.24 115.73 775.55 116.57 775.55 118.24C775.55 119.19 775.81 120.07 776.32 120.9C776.83 121.72 777.76 122.72 779.11 123.89C780.83 125.39 782.01 126.75 782.66 127.97C783.31 129.19 783.63 130.63 783.63 132.27C783.63 134.41 783.1 136.06 782.04 137.21C780.98 138.36 779.44 138.93 777.42 138.93C775.4 138.93 773.92 138.36 772.89 137.23L772.9 137.25Z" fill="white"/>
<path d="M791.75 137.25C790.7 136.12 790.18 134.49 790.18 132.37V112.4H794.29V132.67C794.29 133.57 794.47 134.22 794.83 134.61C795.19 135.01 795.71 135.21 796.38 135.21C797.05 135.21 797.57 135.01 797.93 134.61C798.29 134.21 798.47 133.56 798.47 132.67V112.4H802.43V132.37C802.43 134.49 801.91 136.12 800.86 137.25C799.81 138.39 798.29 138.95 796.3 138.95C794.31 138.95 792.78 138.38 791.74 137.25H791.75Z" fill="white"/>
<path d="M673.06 149.98H678.93L681.55 168.72H681.62L684.24 149.98H690.11V176.16H686.22V156.34H686.15L683.16 176.16H679.72L676.73 156.34H676.66V176.16H673.07V149.98H673.06Z" fill="white"/>
<path d="M698.64 174.83C697.59 173.7 697.07 172.07 697.07 169.95V149.98H701.18V170.25C701.18 171.15 701.36 171.8 701.72 172.19C702.08 172.59 702.6 172.79 703.27 172.79C703.94 172.79 704.46 172.59 704.82 172.19C705.18 171.79 705.36 171.14 705.36 170.25V149.98H709.32V169.95C709.32 172.07 708.8 173.7 707.75 174.83C706.7 175.97 705.18 176.53 703.19 176.53C701.2 176.53 699.67 175.96 698.63 174.83H698.64Z" fill="white"/>
<path d="M719.4 149.98H724.97L729.23 176.16H725.12L724.37 170.96V171.03H719.7L718.95 176.15H715.14L719.4 149.97V149.98ZM723.89 167.48L722.06 154.54H721.99L720.19 167.48H723.89Z" fill="white"/>
<path d="M737.31 165.01L732.34 149.98H736.72L739.53 159.59H739.6L742.4 149.98H746.4L741.43 165.01V176.16H737.32V165.01H737.31Z" fill="white"/>
<path d="M765.55 153.72H761.25V149.98H773.97V153.72H769.67V176.16H765.56V153.72H765.55Z" fill="white"/>
<path d="M779.98 149.98H784.09V160.64H788.5V149.98H792.61V176.16H788.5V164.38H784.09V176.16H779.98V149.98Z" fill="white"/>
<path d="M802.91 149.98H808.48L812.74 176.16H808.63L807.88 170.96V171.03H803.21L802.46 176.15H798.65L802.91 149.97V149.98ZM807.4 167.48L805.57 154.54H805.5L803.7 167.48H807.4Z" fill="white"/>
<path d="M818.77 149.98H822.88V176.16H818.77V149.98Z" fill="white"/>
<path d="M673.06 74.8401H679.27C681.39 74.8401 682.94 75.3301 683.91 76.3201C684.88 77.3101 685.37 78.8201 685.37 80.8601V81.9101C685.37 83.2601 685.15 84.3501 684.72 85.2001C684.28 86.0501 683.62 86.6601 682.72 87.0301V87.1001C684.76 87.8001 685.79 89.6201 685.79 92.5601V94.8001C685.79 96.8201 685.26 98.3601 684.2 99.4201C683.14 100.48 681.59 101.01 679.54 101.01H673.07V74.8301L673.06 74.8401ZM678.78 85.5001C679.6 85.5001 680.22 85.2901 680.63 84.8601C681.04 84.4401 681.25 83.7301 681.25 82.7301V81.2701C681.25 80.3201 681.08 79.6401 680.75 79.2101C680.41 78.7901 679.88 78.5701 679.16 78.5701H677.18V85.4901H678.79L678.78 85.5001ZM679.53 97.2801C680.25 97.2801 680.79 97.0901 681.14 96.7001C681.49 96.3101 681.66 95.6501 681.66 94.7001V92.4201C681.66 91.2201 681.45 90.3901 681.04 89.9301C680.63 89.4701 679.95 89.2401 679 89.2401H677.17V97.2801H679.53Z" fill="white"/>
<path d="M693.82 99.67C692.75 98.52 692.21 96.9 692.21 94.81V81.05C692.21 78.96 692.75 77.34 693.82 76.19C694.89 75.04 696.44 74.47 698.46 74.47C700.48 74.47 702.03 75.04 703.1 76.19C704.17 77.34 704.71 78.96 704.71 81.05V94.81C704.71 96.9 704.17 98.52 703.1 99.67C702.03 100.82 700.48 101.39 698.46 101.39C696.44 101.39 694.89 100.82 693.82 99.67ZM700.59 95.07V80.78C700.59 79.06 699.88 78.2 698.46 78.2C697.04 78.2 696.33 79.06 696.33 80.78V95.07C696.33 96.79 697.04 97.65 698.46 97.65C699.88 97.65 700.59 96.79 700.59 95.07Z" fill="white"/>
<path d="M714.84 87.6298L710.31 74.8398H714.65L717.42 83.2898H717.49L720.33 74.8398H724.22L719.69 87.6298L724.44 101.02H720.1L717.11 91.8898H717.04L713.97 101.02H710.08L714.83 87.6298H714.84Z" fill="white"/>
<path d="M730.73 74.8398H734.84V101.02H730.73V74.8398Z" fill="white"/>
<path d="M742.25 74.8398H747.41L751.41 90.5098H751.48V74.8398H755.15V101.02H750.92L745.98 81.9099H745.91V101.02H742.24V74.8398H742.25Z" fill="white"/>
<path d="M763.83 99.69C762.78 98.56 762.26 96.93 762.26 94.81V81.05C762.26 78.93 762.78 77.3 763.83 76.17C764.88 75.04 766.4 74.47 768.39 74.47C770.38 74.47 771.91 75.04 772.95 76.17C774 77.3 774.52 78.93 774.52 81.05V83.29H770.63V80.78C770.63 79.06 769.92 78.2 768.5 78.2C767.08 78.2 766.37 79.06 766.37 80.78V95.1C766.37 96.8 767.08 97.64 768.5 97.64C769.92 97.64 770.63 96.79 770.63 95.1V89.98H768.57V86.24H774.52V94.81C774.52 96.93 774 98.56 772.95 99.69C771.9 100.83 770.38 101.39 768.39 101.39C766.4 101.39 764.87 100.82 763.83 99.69Z" fill="white"/>
<path d="M585 71.6201H595.35L565.94 178.26H555.35L585 71.6201Z" fill="white"/>
<path d="M624.94 71.6201H635.29L605.88 178.26H595.29L624.94 71.6201Z" fill="white"/>
<path d="M154.64 76.3201H137.11V178.91H154.64V76.3201Z" fill="white"/>
<path d="M102.47 122.44C107.06 117.17 109.59 110.41 109.59 103.42C109.59 88.4601 97.46 76.3201 82.49 76.3201H39V178.91H83.7C101.12 178.91 115.23 164.79 115.23 147.38C115.23 137.5 110.48 128.22 102.47 122.44ZM92.06 103.35V104.61C92.06 111.63 86.37 117.32 79.35 117.32H56.53V90.6401H79.35C86.37 90.6401 92.06 96.3301 92.06 103.35ZM56.53 164.58V131.64H82.72C90.99 131.64 97.7 138.35 97.7 146.62V149.59C97.7 157.86 90.99 164.57 82.72 164.57H56.53V164.58Z" fill="white"/>
<path d="M236.53 76.3201H219V178.91H236.53V76.3201Z" fill="white"/>
<path d="M345.23 76.3201H327.7V178.91H345.23V76.3201Z" fill="white"/>
<path d="M405.59 76.3201H388.06V178.91H405.59V76.3201Z" fill="white"/>
<path d="M198.64 164.59H152.11V178.91H198.64V164.59Z" fill="white"/>
<path d="M198.64 76.3201H152.11V90.6401H198.64V76.3201Z" fill="white"/>
<path d="M371.12 76.3201H300.59V90.6401H371.12V76.3201Z" fill="white"/>
<path d="M185.35 120.46H160.53V134.78H185.35V120.46Z" fill="white"/>
<path d="M289.59 76.3201H270.29L234.76 131.5L235.47 159.44L289.59 76.3201Z" fill="white"/>
<path d="M259 134.68L271.55 114.86L289.59 178.91H272.06L259 134.68Z" fill="white"/>
<path d="M479.29 163.21C459.64 163.21 443.7 147.28 443.7 127.62C443.7 107.96 459.63 92.0299 479.29 92.0299C490.23 92.0299 500.02 96.9699 506.55 104.74L520.14 93.4799C510.37 81.8099 495.71 74.3799 479.3 74.3799C449.9 74.3799 426.06 98.2099 426.06 127.62C426.06 157.03 449.89 180.86 479.3 180.86C495.95 180.86 510.82 173.21 520.58 161.23L506.86 150.13C500.33 158.11 490.41 163.21 479.3 163.21H479.29Z" fill="white"/>
<path d="M489.17 48.0901H501.35L484.94 68.9101H471.88L489.17 48.0901Z" fill="white"/>
</svg>
