<svg width="41" height="41" viewBox="0 0 41 41" fill="none" xmlns="http://www.w3.org/2000/svg">
<path d="M26.5106 14.8608C26.3907 14.7333 26.2671 14.6096 26.1397 14.4898L20.5 0L14.8604 14.4898C14.733 14.6093 14.6095 14.7329 14.4901 14.8603L0 20.4997L14.4894 26.1392C14.6093 26.2667 14.733 26.3904 14.8604 26.5102L20.5 40.9996L26.139 26.5106C26.2667 26.3908 26.3907 26.267 26.5106 26.1393L41 20.5001L26.5106 14.8608ZM20.5 24.1641C18.4766 24.1641 16.836 22.5233 16.836 20.4997C16.836 18.4762 18.4766 16.8359 20.5 16.8359C22.5235 16.8359 24.1638 18.4762 24.1638 20.4997C24.1638 22.5233 22.5234 24.1641 20.5 24.1641Z" fill="#505050"/>
<path d="M20.5 24.1641C18.4766 24.1641 16.836 22.5233 16.836 20.4997C16.836 18.4762 18.4766 16.8359 20.5 16.8359C22.5235 16.8359 24.1638 18.4762 24.1638 20.4997C24.1638 22.5233 22.5234 24.1641 20.5 24.1641Z" fill="#505050"/>
</svg>
